<svg width="68" height="68" viewBox="0 0 68 68" fill="none" xmlns="http://www.w3.org/2000/svg">
<path d="M54.4001 34C54.4001 45.2666 45.2667 54.4 34.0001 54.4C22.7335 54.4 13.6001 45.2666 13.6001 34C13.6001 22.7334 22.7335 13.6 34.0001 13.6C45.2667 13.6 54.4001 22.7334 54.4001 34Z" fill="#92E6E0"/>
<path fill-rule="evenodd" clip-rule="evenodd" d="M34.0001 52.02C43.9523 52.02 52.0201 43.9521 52.0201 34C52.0201 24.0478 43.9523 15.98 34.0001 15.98C24.0479 15.98 15.9801 24.0478 15.9801 34C15.9801 43.9521 24.0479 52.02 34.0001 52.02ZM34.0001 54.4C45.2667 54.4 54.4001 45.2666 54.4001 34C54.4001 22.7334 45.2667 13.6 34.0001 13.6C22.7335 13.6 13.6001 22.7334 13.6001 34C13.6001 45.2666 22.7335 54.4 34.0001 54.4Z" fill="#333333"/>
<path d="M49.3002 34C49.3002 42.4499 42.4502 49.2999 34.0002 49.2999C25.5502 49.2999 18.7002 42.4499 18.7002 34C18.7002 25.55 25.5502 18.7 34.0002 18.7C42.4502 18.7 49.3002 25.55 49.3002 34Z" fill="white"/>
<path fill-rule="evenodd" clip-rule="evenodd" d="M34.0002 47.09C41.2296 47.09 47.0902 41.2294 47.0902 34C47.0902 26.7705 41.2296 20.91 34.0002 20.91C26.7708 20.91 20.9102 26.7705 20.9102 34C20.9102 41.2294 26.7708 47.09 34.0002 47.09ZM34.0002 49.2999C42.4502 49.2999 49.3002 42.4499 49.3002 34C49.3002 25.55 42.4502 18.7 34.0002 18.7C25.5502 18.7 18.7002 25.55 18.7002 34C18.7002 42.4499 25.5502 49.2999 34.0002 49.2999Z" fill="#333333"/>
<path fill-rule="evenodd" clip-rule="evenodd" d="M26.3644 29.1773C25.9646 29.3258 25.7575 29.7673 25.8989 30.1697L29.4536 40.2836C29.582 40.649 29.9536 40.8582 30.3216 40.7957C30.6897 40.8582 31.0613 40.649 31.1897 40.2836L34.7443 30.1697C34.8857 29.7673 34.6787 29.3258 34.2789 29.1773C33.8688 29.0249 33.4136 29.2384 33.2686 29.6511L30.3216 38.0359L27.3747 29.6511C27.2297 29.2384 26.7744 29.0249 26.3644 29.1773Z" fill="#333333"/>
<path fill-rule="evenodd" clip-rule="evenodd" d="M34.0315 29.2069C33.6453 29.3534 33.4452 29.7802 33.5797 30.1708L37.0549 40.262C37.1784 40.6205 37.5409 40.8269 37.9007 40.7679C38.2606 40.8269 38.6231 40.6205 38.7465 40.262L42.2218 30.1708C42.3563 29.7802 42.1562 29.3534 41.7699 29.2069C41.3665 29.0539 40.9164 29.2649 40.7759 29.6729L37.9007 38.0216L35.0256 29.6729C34.8851 29.2649 34.435 29.0539 34.0315 29.2069Z" fill="#333333"/>
<path d="M25.2573 34.2388C25.2573 33.8364 25.5835 33.5103 25.9859 33.5103H42.0145C42.4168 33.5103 42.743 33.8364 42.743 34.2388C42.743 34.6412 42.4168 34.9674 42.0145 34.9674H25.9859C25.5835 34.9674 25.2573 34.6412 25.2573 34.2388Z" fill="#333333"/>
</svg>
