<svg width="69" height="68" viewBox="0 0 69 68" fill="none" xmlns="http://www.w3.org/2000/svg">
<path d="M52.8311 46.3636C52.8311 54.8989 44.5281 61.8181 34.2857 61.8181C24.0433 61.8181 15.7402 54.8989 15.7402 46.3636C15.7402 37.8283 24.0433 30.9091 34.2857 30.9091C44.5281 30.9091 52.8311 37.8283 52.8311 46.3636Z" fill="white"/>
<path fill-rule="evenodd" clip-rule="evenodd" d="M34.2857 59.7575C43.7349 59.7575 50.7541 53.4389 50.7541 46.3636C50.7541 39.2883 43.7349 32.9697 34.2857 32.9697C24.8364 32.9697 17.8173 39.2883 17.8173 46.3636C17.8173 53.4389 24.8364 59.7575 34.2857 59.7575ZM34.2857 61.8181C44.5281 61.8181 52.8311 54.8989 52.8311 46.3636C52.8311 37.8283 44.5281 30.9091 34.2857 30.9091C24.0433 30.9091 15.7402 37.8283 15.7402 46.3636C15.7402 54.8989 24.0433 61.8181 34.2857 61.8181Z" fill="#333333"/>
<path d="M47.4221 27.8182C47.4221 34.2197 41.5408 39.4091 34.2858 39.4091C27.0308 39.4091 21.1494 34.2197 21.1494 27.8182C21.1494 21.4167 27.0308 16.2273 34.2858 16.2273C41.5408 16.2273 47.4221 21.4167 47.4221 27.8182Z" fill="white"/>
<path fill-rule="evenodd" clip-rule="evenodd" d="M34.2858 37.2455C40.6083 37.2455 45.2585 32.7782 45.2585 27.8182C45.2585 22.8582 40.6083 18.3909 34.2858 18.3909C27.9633 18.3909 23.3131 22.8582 23.3131 27.8182C23.3131 32.7782 27.9633 37.2455 34.2858 37.2455ZM34.2858 39.4091C41.5408 39.4091 47.4221 34.2197 47.4221 27.8182C47.4221 21.4167 41.5408 16.2273 34.2858 16.2273C27.0308 16.2273 21.1494 21.4167 21.1494 27.8182C21.1494 34.2197 27.0308 39.4091 34.2858 39.4091Z" fill="#333333"/>
<path fill-rule="evenodd" clip-rule="evenodd" d="M31.9669 30.6774C32.5217 30.6774 32.9715 31.1271 32.9715 31.6819C32.9715 31.6804 32.9716 31.681 32.9721 31.6833C32.9753 31.6996 32.9953 31.8017 33.1131 31.9107C33.233 32.0217 33.5469 32.2228 34.2851 32.2228C35.0233 32.2228 35.3373 32.0217 35.4572 31.9107C35.575 31.8017 35.595 31.6996 35.5982 31.6833C35.5987 31.681 35.5988 31.6804 35.5988 31.6819C35.5988 31.1271 36.0485 30.6774 36.6033 30.6774C37.1581 30.6774 37.6079 31.1271 37.6079 31.6819C37.6079 32.209 37.3827 32.8659 36.8222 33.3849C36.2466 33.9179 35.4015 34.2319 34.2851 34.2319C33.1688 34.2319 32.3237 33.9179 31.7481 33.3849C31.1876 32.8659 30.9624 32.209 30.9624 31.6819C30.9624 31.1271 31.4122 30.6774 31.9669 30.6774Z" fill="#333333"/>
<path d="M32.7402 28.909C32.7402 28.0554 33.4322 27.3635 34.2857 27.3635V27.3635C35.1392 27.3635 35.8311 28.0554 35.8311 28.909V28.909C35.8311 29.7625 35.1392 30.4544 34.2857 30.4544V30.4544C33.4322 30.4544 32.7402 29.7625 32.7402 28.909V28.909Z" fill="#333333"/>
<path fill-rule="evenodd" clip-rule="evenodd" d="M17.4147 32.6085C17.4176 32.5754 17.4191 32.5418 17.4191 32.5079V27.4213C17.4191 26.7869 16.8902 26.2727 16.2376 26.2727C15.5851 26.2727 15.0561 26.7869 15.0561 27.4213V30.3157L11.7327 27.0849C11.2713 26.6363 10.5232 26.6363 10.0618 27.0849C9.60043 27.5334 9.60043 28.2607 10.0618 28.7092L12.6191 31.1953H10.74C10.0875 31.1953 9.5585 31.7095 9.5585 32.3439C9.5585 32.9782 10.0875 33.4925 10.74 33.4925H14.5498C14.6799 33.4925 14.8051 33.472 14.9222 33.4342L19.1325 37.5272C19.5939 37.9758 20.342 37.9758 20.8034 37.5272C21.2648 37.0786 21.2648 36.3514 20.8034 35.9028L17.4147 32.6085Z" fill="#333333"/>
<path fill-rule="evenodd" clip-rule="evenodd" d="M51.1566 32.6085C51.1537 32.5754 51.1521 32.5418 51.1521 32.5079V27.4213C51.1521 26.7869 51.6811 26.2727 52.3337 26.2727C52.9862 26.2727 53.5152 26.7869 53.5152 27.4213V30.3157L56.8385 27.0849C57.3 26.6363 58.048 26.6363 58.5094 27.0849C58.9709 27.5334 58.9709 28.2607 58.5094 28.7092L55.9522 31.1953H57.8313C58.4838 31.1953 59.0128 31.7095 59.0128 32.3439C59.0128 32.9782 58.4838 33.4925 57.8313 33.4925H54.0215C53.8914 33.4925 53.7662 33.472 53.6491 33.4342L49.4388 37.5272C48.9774 37.9758 48.2293 37.9758 47.7679 37.5272C47.3065 37.0786 47.3065 36.3514 47.7679 35.9028L51.1566 32.6085Z" fill="#333333"/>
<path d="M31.9681 25.8905C31.9681 26.5307 31.4491 27.0496 30.809 27.0496C30.1688 27.0496 29.6499 26.5307 29.6499 25.8905C29.6499 25.2504 30.1688 24.7314 30.809 24.7314C31.4491 24.7314 31.9681 25.2504 31.9681 25.8905Z" fill="#333333"/>
<path d="M38.9227 25.8905C38.9227 26.5307 38.4037 27.0496 37.7636 27.0496C37.1234 27.0496 36.6045 26.5307 36.6045 25.8905C36.6045 25.2504 37.1234 24.7314 37.7636 24.7314C38.4037 24.7314 38.9227 25.2504 38.9227 25.8905Z" fill="#333333"/>
<path d="M36.6039 43.6591C36.6039 44.726 35.739 45.5909 34.6721 45.5909C33.6051 45.5909 32.7402 44.726 32.7402 43.6591C32.7402 42.5922 33.6051 41.7273 34.6721 41.7273C35.739 41.7273 36.6039 42.5922 36.6039 43.6591Z" fill="#333333"/>
<path d="M36.6039 51.3864C36.6039 52.4533 35.739 53.3182 34.6721 53.3182C33.6051 53.3182 32.7402 52.4533 32.7402 51.3864C32.7402 50.3195 33.6051 49.4546 34.6721 49.4546C35.739 49.4546 36.6039 50.3195 36.6039 51.3864Z" fill="#333333"/>
<path d="M21.9214 19.173C21.9214 18.5755 22.4749 18.0912 23.1578 18.0912H45.4123C46.0951 18.0912 46.6487 18.5755 46.6487 19.173V19.173C46.6487 19.7705 46.0951 20.2548 45.4123 20.2548H23.1578C22.4749 20.2548 21.9214 19.7705 21.9214 19.173V19.173Z" fill="#333333"/>
<path d="M25.7852 12.3636C25.7852 10.6566 27.169 9.27271 28.8761 9.27271H39.6942C41.4013 9.27271 42.7852 10.6566 42.7852 12.3636V20.0909H25.7852V12.3636Z" fill="#92E6E0"/>
<path fill-rule="evenodd" clip-rule="evenodd" d="M39.6942 11.4363H28.8761C28.3639 11.4363 27.9488 11.8515 27.9488 12.3636V17.9273H40.6215V12.3636C40.6215 11.8515 40.2064 11.4363 39.6942 11.4363ZM28.8761 9.27271C27.169 9.27271 25.7852 10.6566 25.7852 12.3636V20.0909H42.7852V12.3636C42.7852 10.6566 41.4013 9.27271 39.6942 9.27271H28.8761Z" fill="#333333"/>
</svg>
