<svg width="69" height="68" viewBox="0 0 69 68" fill="none" xmlns="http://www.w3.org/2000/svg">
<path fill-rule="evenodd" clip-rule="evenodd" d="M51.7556 51H17.3884C14.673 51 12.4714 48.6266 12.4714 45.6994V24.0005C12.4714 21.0733 14.673 18.7 17.3884 18.7H51.7556C54.471 18.7 56.6714 21.0733 56.6714 24.0005V45.6994C56.6714 48.6266 54.471 51 51.7556 51Z" fill="white"/>
<path fill-rule="evenodd" clip-rule="evenodd" d="M17.3884 19.89C15.4129 19.89 13.6615 21.6448 13.6615 24.0006V45.6994C13.6615 48.0553 15.4129 49.81 17.3884 49.81H51.7556C53.7309 49.81 55.4815 48.0556 55.4815 45.6994V24.0006C55.4815 21.6444 53.7309 19.89 51.7556 19.89H17.3884ZM11.2815 24.0006C11.2815 20.5019 13.9332 17.51 17.3884 17.51H51.7556C55.2112 17.51 57.8615 20.5022 57.8615 24.0006V45.6994C57.8615 49.1978 55.2112 52.19 51.7556 52.19H17.3884C13.9332 52.19 11.2815 49.1981 11.2815 45.6994V24.0006Z" fill="#333333"/>
<path fill-rule="evenodd" clip-rule="evenodd" d="M12.4714 32.3H56.6714V25.5H12.4714V32.3Z" fill="#92E6E0"/>
<path fill-rule="evenodd" clip-rule="evenodd" d="M11.3665 25.5C11.3665 24.8897 11.8612 24.395 12.4715 24.395H56.6715C57.2817 24.395 57.7765 24.8897 57.7765 25.5V32.3C57.7765 32.9103 57.2817 33.405 56.6715 33.405H12.4715C11.8612 33.405 11.3665 32.9103 11.3665 32.3V25.5ZM13.5765 26.605V31.195H55.5665V26.605H13.5765Z" fill="#333333"/>
<path fill-rule="evenodd" clip-rule="evenodd" d="M18.2515 39.9501C18.2515 39.3867 18.7081 38.9301 19.2715 38.9301H20.9715C21.5348 38.9301 21.9915 39.3867 21.9915 39.9501C21.9915 40.5134 21.5348 40.9701 20.9715 40.9701H19.2715C18.7081 40.9701 18.2515 40.5134 18.2515 39.9501Z" fill="#333333"/>
<path fill-rule="evenodd" clip-rule="evenodd" d="M25.0515 39.9501C25.0515 39.3867 25.5082 38.9301 26.0715 38.9301H29.4715C30.0348 38.9301 30.4915 39.3867 30.4915 39.9501C30.4915 40.5134 30.0348 40.9701 29.4715 40.9701H26.0715C25.5082 40.9701 25.0515 40.5134 25.0515 39.9501Z" fill="#333333"/>
<path fill-rule="evenodd" clip-rule="evenodd" d="M18.2515 45.05C18.2515 44.4867 18.7081 44.03 19.2715 44.03H34.5715C35.1348 44.03 35.5915 44.4867 35.5915 45.05C35.5915 45.6134 35.1348 46.07 34.5715 46.07H19.2715C18.7081 46.07 18.2515 45.6134 18.2515 45.05Z" fill="#333333"/>
</svg>
