<svg width="69" height="68" viewBox="0 0 69 68" fill="none" xmlns="http://www.w3.org/2000/svg">
<path fill-rule="evenodd" clip-rule="evenodd" d="M14.0312 34.4051C13.9514 33.4507 14.6755 32.6187 15.6318 32.5661L34.2164 31.543C35.1814 31.4899 35.9965 32.2508 36.0097 33.2172L36.2405 50.0623C36.2574 51.298 34.9919 52.1383 33.8596 51.6432L15.7033 43.7048C15.1312 43.4547 14.7423 42.911 14.6903 42.2888L14.0312 34.4051Z" fill="#92E6E0"/>
<path fill-rule="evenodd" clip-rule="evenodd" d="M34.82 33.2334C34.816 32.9435 34.5715 32.7153 34.282 32.7312L15.6973 33.7543C15.4104 33.77 15.1932 34.0196 15.2172 34.306L15.8763 42.1896C15.8919 42.3763 16.0085 42.5394 16.1802 42.6144L34.3365 50.5528C34.6761 50.7014 35.0558 50.4493 35.0507 50.0786L34.82 33.2334ZM34.1512 30.3548C35.7916 30.2645 37.1772 31.5581 37.1997 33.2008L37.4305 50.046C37.4593 52.1467 35.308 53.5752 33.383 52.7335L15.2267 44.7951C14.2542 44.3699 13.593 43.4457 13.5045 42.3879L12.8454 34.5043C12.7098 32.8816 13.9407 31.4673 15.5665 31.3778L34.1512 30.3548Z" fill="#333333"/>
<path fill-rule="evenodd" clip-rule="evenodd" d="M12.1855 23.0749C12.1855 20.3873 14.2713 18.1609 16.9533 17.9858L52.6533 15.6547C55.5944 15.4627 58.0855 17.7965 58.0855 20.7439V40.2797C58.0855 43.1111 55.779 45.4006 52.9476 45.3795L17.2476 45.114C14.4458 45.0931 12.1855 42.8159 12.1855 40.0141L12.1855 23.0749Z" fill="white"/>
<path fill-rule="evenodd" clip-rule="evenodd" d="M52.8083 18.0297L17.1083 20.3607C15.678 20.4541 14.5655 21.6415 14.5655 23.0749V40.0141C14.5655 41.5084 15.771 42.7229 17.2653 42.734L52.9653 42.9996C54.4754 43.0108 55.7055 41.7898 55.7055 40.2797V20.7439C55.7055 19.1719 54.3769 17.9273 52.8083 18.0297ZM16.9533 17.9858C14.2713 18.1609 12.1855 20.3873 12.1855 23.0749V40.0141C12.1855 42.8159 14.4458 45.0931 17.2476 45.114L52.9476 45.3795C55.779 45.4006 58.0855 43.1111 58.0855 40.2797V20.7439C58.0855 17.7965 55.5944 15.4627 52.6533 15.6547L16.9533 17.9858Z" fill="#333333"/>
<path d="M21.0835 36.2935H25.7614C26.347 36.2935 26.728 35.9619 26.728 35.4115C26.728 34.8612 26.3399 34.5296 25.7614 34.5296H22.1489V27.0859C22.1489 26.3803 21.7538 25.9711 21.0835 25.9711C20.4132 25.9711 20.0181 26.3803 20.0181 27.0859V35.1787C20.0181 35.8843 20.4132 36.2935 21.0835 36.2935Z" fill="#333333"/>
<path d="M29.6519 36.4276C30.3222 36.4276 30.7173 36.0183 30.7173 35.3198V27.0859C30.7173 26.3803 30.3222 25.9711 29.6519 25.9711C28.9816 25.9711 28.5865 26.3803 28.5865 27.0859V35.3198C28.5865 36.0183 28.9816 36.4276 29.6519 36.4276Z" fill="#333333"/>
<path d="M37.1831 36.4276C38.0086 36.4276 38.5025 36.0607 38.8129 35.1999L41.6634 27.5233C41.734 27.3328 41.7693 27.1423 41.7693 26.9518C41.7693 26.3732 41.3248 25.9711 40.6756 25.9711C40.1182 25.9711 39.8007 26.218 39.6243 26.7895L37.2466 34.0992H37.1972L34.8124 26.8107C34.636 26.2321 34.2973 25.9711 33.7258 25.9711C33.0555 25.9711 32.604 26.3803 32.604 26.98C32.604 27.1846 32.6392 27.3822 32.7098 27.5798L35.5462 35.1928C35.8566 36.0607 36.3505 36.4276 37.1831 36.4276Z" fill="#333333"/>
<path d="M44.7284 36.2935H49.5686C50.1542 36.2935 50.5352 35.9619 50.5352 35.4115C50.5352 34.8612 50.1472 34.5296 49.5686 34.5296H45.7938V31.9613H49.3852C49.9214 31.9613 50.2742 31.6509 50.2742 31.1429C50.2742 30.6349 49.9143 30.3244 49.3852 30.3244H45.7938V27.8761H49.5686C50.1472 27.8761 50.5352 27.5445 50.5352 26.9941C50.5352 26.4438 50.1542 26.1122 49.5686 26.1122H44.7284C44.0581 26.1122 43.663 26.5214 43.663 27.2199V35.1787C43.663 35.8843 44.0581 36.2935 44.7284 36.2935Z" fill="#333333"/>
</svg>
