<svg width="69" height="68" viewBox="0 0 69 68" fill="none" xmlns="http://www.w3.org/2000/svg">
<path d="M49.7484 15.0721C49.8301 14.7469 49.824 14.4053 49.731 14.0833C49.6379 13.7612 49.4612 13.4705 49.2194 13.2415C48.9776 13.0125 48.6796 12.8537 48.3566 12.7817C48.0335 12.7096 47.6974 12.7271 47.3832 12.8321C40.2875 15.2321 36.5032 18.9121 34.9264 22.7521C34.2755 24.3268 33.9534 26.0214 33.9806 27.7289C34.0077 29.4363 34.3835 31.1195 35.0841 32.6721C35.2625 33.0125 35.537 33.291 35.8725 33.4721C38.0937 34.6737 40.6529 35.0689 43.1258 34.5921C45.249 34.1043 47.2074 33.0555 48.8023 31.5521C51.7635 28.5815 54.0271 24.9721 55.4249 20.9921C55.5402 20.6727 55.566 20.3272 55.4994 19.9939C55.4328 19.6606 55.2765 19.3525 55.0479 19.1039C54.8191 18.8553 54.527 18.6758 54.2039 18.5855C53.8808 18.4951 53.5394 18.4974 53.2174 18.5921L48.6446 19.7121L49.7484 15.0721Z" fill="white"/>
<path fill-rule="evenodd" clip-rule="evenodd" d="M47.068 11.7761C47.5664 11.6054 48.1008 11.5739 48.6153 11.6849C49.1298 11.7958 49.6054 12.0451 49.9924 12.4067C50.3793 12.7682 50.6632 13.2287 50.8146 13.7398C50.9659 14.251 50.9789 14.794 50.8523 15.3121L50.2216 18.1921L52.9968 17.5201C53.5102 17.3704 54.0542 17.3674 54.5691 17.5114C55.084 17.6555 55.5498 17.9409 55.915 18.3363C56.2802 18.7318 56.5308 19.2218 56.6391 19.7525C56.7474 20.2832 56.7093 20.834 56.5289 21.3441C55.0744 25.4903 52.7132 29.2484 49.6224 32.3361C47.8866 33.9715 45.7533 35.109 43.4413 35.6321C40.7248 36.169 37.9089 35.7454 35.4627 34.4321C34.9081 34.1413 34.4563 33.6828 34.1697 33.1201C33.4001 31.4264 32.9859 29.589 32.9533 27.7242C32.9206 25.8595 33.2705 24.0083 33.9805 22.2881C35.6361 18.0961 39.7358 14.2401 47.068 11.7761ZM48.4871 14.0481C48.3936 13.9544 48.2757 13.8897 48.1473 13.8614C48.0189 13.833 47.8852 13.8423 47.7618 13.8881C40.8396 16.1921 37.3706 19.7281 36.0303 23.1841C35.4157 24.6038 35.0985 26.1375 35.0985 27.6881C35.0985 29.2387 35.4157 30.7724 36.0303 32.1921C36.0956 32.3138 36.1942 32.4138 36.3141 32.4801C38.3102 33.57 40.6129 33.9368 42.8421 33.5201C44.7763 33.0668 46.5596 32.1069 48.0141 30.7361C50.8362 27.8934 52.9919 24.4429 54.3213 20.6401C54.3629 20.5029 54.3687 20.3571 54.3384 20.2169C54.3079 20.0767 54.2423 19.9469 54.1479 19.8401C54.0696 19.7488 53.9662 19.6833 53.8511 19.6519C53.7359 19.6206 53.6141 19.6248 53.5014 19.6641H53.4068L48.834 20.7841C48.6515 20.827 48.4611 20.8221 48.2809 20.7698C48.1008 20.7174 47.9368 20.6194 47.8043 20.485C47.6717 20.3505 47.5751 20.184 47.5236 20.0012C47.472 19.8184 47.4671 19.6253 47.5095 19.4401L48.6133 14.8001C48.6499 14.6712 48.6547 14.5352 48.6272 14.404C48.5997 14.2729 48.5407 14.1506 48.4556 14.0481H48.4871Z" fill="#333333"/>
<path d="M19.1577 53.3121C19.0761 53.6374 19.0821 53.9789 19.1752 54.3009C19.2683 54.623 19.445 54.9137 19.6867 55.1427C19.9286 55.3717 20.2266 55.5305 20.5496 55.6026C20.8727 55.6746 21.2088 55.6572 21.5229 55.5521C28.6186 53.1521 32.4029 49.4721 33.9797 45.6321C34.6306 44.0574 34.9527 42.3628 34.9256 40.6554C34.8985 38.9479 34.5227 37.2647 33.822 35.7121C33.6437 35.3717 33.3691 35.0932 33.0336 34.9121C30.8125 33.7105 28.2532 33.3153 25.7803 33.7921C23.6571 34.2799 21.6988 35.3287 20.1038 36.8321C17.1426 39.8027 14.8791 43.4121 13.4812 47.3921C13.366 47.7115 13.3401 48.057 13.4068 48.3903C13.4733 48.7236 13.6296 49.0317 13.8583 49.2803C14.087 49.5289 14.3791 49.7084 14.7022 49.7987C15.0254 49.8891 15.3668 49.8868 15.6887 49.7921L20.2615 48.5121L19.1577 53.3121Z" fill="white"/>
<path fill-rule="evenodd" clip-rule="evenodd" d="M25.5442 32.7041C28.2608 32.1672 31.0767 32.5907 33.5229 33.9041C34.0775 34.1949 34.5293 34.6533 34.8159 35.2161C35.5855 36.9097 35.9998 38.7472 36.0323 40.6119C36.0649 42.4766 35.7151 44.3278 35.0051 46.0481C33.2706 50.2721 29.1709 54.0481 21.8703 56.5921C21.3719 56.7627 20.8375 56.7942 20.3229 56.6833C19.8085 56.5723 19.3329 56.323 18.9459 55.9615C18.559 55.6 18.275 55.1395 18.1237 54.6283C17.9724 54.1172 17.9594 53.5741 18.0859 53.0561L18.7639 50.0961L16.0045 50.8641C15.4855 51.0376 14.9285 51.0589 14.398 50.9253C13.8676 50.7918 13.385 50.5089 13.0061 50.1093C12.6271 49.7097 12.367 49.2096 12.256 48.6666C12.1448 48.1236 12.1871 47.5598 12.3779 47.0401C13.8323 42.8938 16.1935 39.1358 19.2843 36.0481C21.0368 34.3827 23.1993 33.2275 25.5442 32.7041ZM32.5453 35.9041C30.5492 34.8141 28.2465 34.4473 26.0173 34.8641C24.0831 35.3173 22.2998 36.2772 20.8453 37.6481C18.0232 40.4907 15.8675 43.9413 14.5381 47.7441C14.4966 47.8813 14.4907 48.0271 14.521 48.1672C14.5515 48.3074 14.6171 48.4372 14.7115 48.5441C14.7898 48.6354 14.8932 48.7009 15.0083 48.7322C15.1235 48.7636 15.2453 48.7593 15.358 48.7201L19.9308 47.4401C20.1171 47.3841 20.3149 47.3798 20.5035 47.4276C20.6921 47.4755 20.8646 47.5737 21.003 47.7121C21.1382 47.8471 21.2368 48.0153 21.2892 48.2002C21.3417 48.3852 21.3464 48.5808 21.3026 48.7681L20.1988 53.5681C20.1678 53.7071 20.1717 53.8517 20.2103 53.9888C20.2489 54.1258 20.3208 54.2507 20.4196 54.3521C20.5131 54.4457 20.631 54.5105 20.7594 54.5388C20.8878 54.5671 21.0215 54.5578 21.1449 54.5121C28.0356 52.1761 31.5046 48.6721 32.9237 45.2161C33.5308 43.7931 33.84 42.2576 33.832 40.707C33.8238 39.1564 33.4985 37.6244 32.8764 36.2081C32.7986 36.0792 32.6828 35.9784 32.5453 35.9201V35.9041Z" fill="#333333"/>
<path d="M19.1577 15.0721C19.0761 14.7469 19.0821 14.4053 19.1752 14.0833C19.2683 13.7612 19.445 13.4705 19.6867 13.2415C19.9286 13.0125 20.2266 12.8537 20.5496 12.7817C20.8727 12.7096 21.2088 12.7271 21.5229 12.8321C28.6186 15.2321 32.4029 18.9121 33.9797 22.7521C34.6306 24.3268 34.9527 26.0214 34.9256 27.7289C34.8985 29.4363 34.5227 31.1195 33.822 32.6721C33.6437 33.0125 33.3691 33.291 33.0336 33.4721C30.8125 34.6737 28.2532 35.0689 25.7803 34.5921C23.6571 34.1043 21.6988 33.0555 20.1038 31.5521C17.1426 28.5815 14.8791 24.9721 13.4812 20.9921C13.366 20.6727 13.3401 20.3272 13.4068 19.9939C13.4733 19.6606 13.6296 19.3525 13.8583 19.1039C14.087 18.8553 14.3791 18.6758 14.7022 18.5855C15.0254 18.4951 15.3668 18.4974 15.6887 18.5921L20.2615 19.8721L19.1577 15.0721Z" fill="white"/>
<path fill-rule="evenodd" clip-rule="evenodd" d="M20.2617 14.832L21.3654 19.632C21.4092 19.8193 21.4046 20.0149 21.352 20.1999C21.2996 20.3848 21.2011 20.553 21.0658 20.688C20.9274 20.8264 20.7549 20.9246 20.5663 20.9725C20.3778 21.0203 20.18 21.016 19.9936 20.96L15.4209 19.68C15.3081 19.6408 15.1863 19.6365 15.0712 19.6679C14.956 19.6992 14.8526 19.7648 14.7744 19.856C14.68 19.9629 14.6143 20.0927 14.584 20.2329C14.5535 20.3731 14.5594 20.5188 14.6009 20.656C15.9304 24.4588 18.0861 27.9094 20.9082 30.752C22.3627 32.1229 24.1459 33.0828 26.0801 33.536C28.3093 33.9528 30.6121 33.586 32.6081 32.496C32.7245 32.423 32.8176 32.3175 32.8762 32.192C33.5084 30.7834 33.846 29.2571 33.8678 27.7094C33.8895 26.1618 33.5948 24.6263 33.0023 23.2C31.5359 19.728 28.1457 16.192 21.1762 13.888C21.0528 13.8423 20.9191 13.833 20.7907 13.8613C20.6623 13.8897 20.5445 13.9544 20.4509 14.048C20.3577 14.1525 20.2915 14.2788 20.2585 14.4157C20.2254 14.5526 20.2266 14.6957 20.2617 14.832ZM18.1172 15.312C17.9965 14.8009 18.0113 14.2665 18.1602 13.7631C18.309 13.2597 18.5865 12.8053 18.9646 12.4461C19.3427 12.0868 19.8077 11.8356 20.3125 11.7179C20.8173 11.6002 21.3439 11.6203 21.8385 11.776C29.1391 14.24 33.2388 18.096 34.9733 22.32C35.6833 24.0403 36.0331 25.8915 36.0005 27.7562C35.968 29.6209 35.5537 31.4584 34.7841 33.152C34.4975 33.7148 34.0458 34.1732 33.4911 34.464C31.0449 35.7774 28.229 36.2009 25.5125 35.664C23.2006 35.141 21.0672 34.0035 19.3314 32.368C16.2406 29.2803 13.8794 25.5223 12.4249 21.376C12.2313 20.8595 12.1848 20.2981 12.2909 19.756C12.397 19.2139 12.6513 18.7131 13.0247 18.3108C13.3982 17.9085 13.8757 17.621 14.4025 17.4811C14.9295 17.3413 15.4846 17.3548 16.0043 17.52L18.7637 18.288L18.1172 15.312Z" fill="#333333"/>
<path d="M49.7484 53.3121C49.8301 53.6374 49.824 53.9789 49.731 54.3009C49.6379 54.623 49.4612 54.9137 49.2194 55.1427C48.9776 55.3717 48.6796 55.5305 48.3566 55.6026C48.0335 55.6746 47.6974 55.6572 47.3832 55.5521C40.2875 53.1521 36.5032 49.4721 34.9264 45.6321C34.2755 44.0574 33.9534 42.3628 33.9806 40.6554C34.0077 38.9479 34.3835 37.2647 35.0841 35.7121C35.2625 35.3717 35.537 35.0932 35.8725 34.9121C38.0937 33.7105 40.6529 33.3153 43.1258 33.7921C45.249 34.2799 47.2074 35.3287 48.8023 36.8321C51.7635 39.8027 54.0271 43.4121 55.4249 47.3921C55.5402 47.7115 55.566 48.057 55.4994 48.3903C55.4328 48.7236 55.2765 49.0317 55.0479 49.2803C54.8191 49.5289 54.527 49.7084 54.2039 49.7987C53.8808 49.8891 53.5394 49.8868 53.2174 49.7921L48.6446 48.6721L49.7484 53.3121Z" fill="white"/>
<path fill-rule="evenodd" clip-rule="evenodd" d="M42.8888 34.8801C40.6596 34.4633 38.3569 34.8301 36.3608 35.9201C36.2409 35.9864 36.1423 36.0864 36.077 36.2081C35.4573 37.6222 35.1331 39.1514 35.125 40.6991C35.1168 42.2467 35.4249 43.7793 36.0297 45.2001C37.4488 48.6561 40.9178 52.1601 47.8084 54.4961C47.9319 54.5418 48.0656 54.5511 48.194 54.5228C48.3224 54.4945 48.4403 54.4297 48.5338 54.3361C48.6325 54.2381 48.7047 54.1159 48.7433 53.9814C48.782 53.8469 48.7859 53.7046 48.7545 53.5681L47.6508 48.9281C47.6085 48.7428 47.6133 48.5497 47.665 48.3669C47.7165 48.1841 47.8131 48.0176 47.9456 47.8832C48.0781 47.7487 48.2422 47.6507 48.4223 47.5984C48.6025 47.5461 48.7928 47.5411 48.9753 47.5841L53.548 48.7041H53.6426C53.7555 48.7433 53.8773 48.7476 53.9924 48.7162C54.1076 48.6849 54.2109 48.6194 54.2891 48.5281C54.3837 48.4212 54.4493 48.2914 54.4796 48.1512C54.5101 48.0111 54.5042 47.8653 54.4626 47.7281C53.1331 43.9253 50.9775 40.4747 48.1553 37.6321C46.6708 36.258 44.8534 35.3083 42.8888 34.8801ZM35.3832 33.9041C37.8295 32.5907 40.6453 32.1672 43.3618 32.7041C45.6738 33.2271 47.8072 34.3647 49.5429 36.0001C52.6623 39.0796 55.0508 42.8383 56.5282 46.9921C56.7103 47.5038 56.7491 48.0566 56.6403 48.5893C56.5315 49.122 56.2793 49.6137 55.9118 50.0098C55.5443 50.4059 55.0759 50.6909 54.5584 50.8332C54.041 50.9756 53.4947 50.9696 52.9804 50.8161L50.221 50.1921L50.899 53.0721C51.0304 53.5954 51.0189 54.1452 50.8659 54.6624C50.7128 55.1796 50.424 55.6449 50.0302 56.0082C49.6365 56.3716 49.1527 56.6194 48.6308 56.725C48.1088 56.8307 47.5684 56.7903 47.0673 56.6081C39.7667 54.1441 35.667 50.2881 33.9325 46.0641C33.2225 44.3438 32.8728 42.4926 32.9054 40.6279C32.9379 38.7632 33.3521 36.9257 34.1217 35.2321C34.3975 34.6681 34.838 34.2044 35.3832 33.9041Z" fill="#333333"/>
<path fill-rule="evenodd" clip-rule="evenodd" d="M44.7023 26.1122C44.9103 26.325 45.027 26.6124 45.027 26.9121C45.027 27.2118 44.9103 27.4994 44.7023 27.7121L39.483 32.9921C39.2734 33.2032 38.99 33.3217 38.6946 33.3217C38.3994 33.3217 38.1159 33.2032 37.9062 32.9921C37.702 32.7774 37.5879 32.4907 37.5879 32.1922C37.5879 31.8938 37.702 31.6069 37.9062 31.3921L43.1097 26.1122C43.3221 25.9002 43.6081 25.7812 43.906 25.7812C44.204 25.7812 44.49 25.9002 44.7023 26.1122Z" fill="#333333"/>
<path fill-rule="evenodd" clip-rule="evenodd" d="M41.5489 22.9121C41.757 23.1248 41.8737 23.4124 41.8737 23.7121C41.8737 24.0117 41.757 24.2993 41.5489 24.5121L36.3297 29.7921C36.1201 30.0031 35.8366 30.1215 35.5413 30.1215C35.246 30.1215 34.9626 30.0031 34.7529 29.7921C34.5487 29.5773 34.4346 29.2905 34.4346 28.9921C34.4346 28.6936 34.5487 28.4068 34.7529 28.1921L39.9564 22.9121C40.1687 22.7 40.4547 22.5812 40.7527 22.5812C41.0507 22.5812 41.3367 22.7 41.5489 22.9121Z" fill="#333333"/>
<path fill-rule="evenodd" clip-rule="evenodd" d="M30.9682 34.6081C31.0751 34.7112 31.1602 34.8353 31.2183 34.9728C31.2765 35.1104 31.3064 35.2584 31.3064 35.4081C31.3064 35.5577 31.2765 35.7058 31.2183 35.8433C31.1602 35.9809 31.0751 36.105 30.9682 36.2081L25.7647 41.4881C25.5556 41.7003 25.2721 41.8195 24.9763 41.8195C24.6807 41.8195 24.397 41.7003 24.1879 41.4881C23.9788 41.2759 23.8613 40.9881 23.8613 40.6881C23.8613 40.388 23.9788 40.1003 24.1879 39.8881L29.3914 34.6081C29.493 34.4997 29.6153 34.4133 29.7509 34.3543C29.8864 34.2953 30.0324 34.2649 30.1798 34.2649C30.3273 34.2649 30.4732 34.2953 30.6088 34.3543C30.7443 34.4133 30.8666 34.4997 30.9682 34.6081Z" fill="#333333"/>
<path fill-rule="evenodd" clip-rule="evenodd" d="M34.1223 37.6321C34.3303 37.8448 34.447 38.1324 34.447 38.4321C34.447 38.7318 34.3303 39.0193 34.1223 39.2321L28.9188 44.6721C28.7091 44.8831 28.4257 45.0015 28.1304 45.0015C27.835 45.0015 27.5517 44.8831 27.342 44.6721C27.2371 44.5678 27.1537 44.4433 27.0969 44.306C27.04 44.1686 27.0107 44.0211 27.0107 43.8721C27.0107 43.7231 27.04 43.5756 27.0969 43.4382C27.1537 43.3008 27.2371 43.1764 27.342 43.0721L32.5454 37.6321C32.7552 37.421 33.0385 37.3026 33.3339 37.3026C33.6292 37.3026 33.9126 37.421 34.1223 37.6321Z" fill="#333333"/>
<path fill-rule="evenodd" clip-rule="evenodd" d="M26.8842 23.408C26.9859 23.2996 27.1082 23.2132 27.2437 23.1542C27.3793 23.0952 27.5252 23.0648 27.6726 23.0648C27.8202 23.0648 27.9661 23.0952 28.1016 23.1542C28.2371 23.2132 28.3594 23.2996 28.461 23.408L33.6803 28.688C33.8883 28.9008 34.005 29.1883 34.005 29.488C34.005 29.7877 33.8883 30.0752 33.6803 30.288C33.4687 30.4953 33.1861 30.6111 32.8919 30.6111C32.5978 30.6111 32.3152 30.4953 32.1035 30.288L26.9 24.992C26.7946 24.8902 26.7103 24.7679 26.6522 24.6325C26.5942 24.497 26.5635 24.3511 26.5621 24.2034C26.5606 24.0557 26.5884 23.9092 26.6438 23.7726C26.6991 23.636 26.7809 23.512 26.8842 23.408Z" fill="#333333"/>
<path fill-rule="evenodd" clip-rule="evenodd" d="M23.731 26.6081C23.8326 26.4997 23.9549 26.4133 24.0904 26.3543C24.226 26.2953 24.3718 26.2649 24.5194 26.2649C24.6668 26.2649 24.8128 26.2953 24.9483 26.3543C25.0839 26.4133 25.2062 26.4997 25.3078 26.6081L30.527 31.8881C30.735 32.1009 30.8517 32.3884 30.8517 32.6881C30.8517 32.9878 30.735 33.2753 30.527 33.4881C30.3153 33.6953 30.0327 33.8112 29.7386 33.8112C29.4444 33.8112 29.1618 33.6953 28.9502 33.4881L23.7467 28.2081C23.5366 27.9974 23.4171 27.7111 23.4141 27.4114C23.4112 27.1117 23.5251 26.823 23.731 26.6081Z" fill="#333333"/>
<path fill-rule="evenodd" clip-rule="evenodd" d="M35.2413 37.312C35.451 37.101 35.7344 36.9825 36.0297 36.9825C36.325 36.9825 36.6085 37.101 36.8181 37.312L42.0215 42.592C42.1251 42.6971 42.2072 42.8218 42.2633 42.9591C42.3193 43.0963 42.3481 43.2434 42.3481 43.392C42.3481 43.5406 42.3193 43.6877 42.2633 43.825C42.2072 43.9622 42.1251 44.087 42.0215 44.192C41.9181 44.2971 41.7952 44.3804 41.6599 44.4373C41.5246 44.4941 41.3796 44.5234 41.2331 44.5234C41.0868 44.5234 40.9417 44.4941 40.8065 44.4373C40.6712 44.3804 40.5483 44.2971 40.4447 44.192L35.2413 38.896C35.038 38.684 34.9243 38.3998 34.9243 38.104C34.9243 37.8082 35.038 37.5241 35.2413 37.312Z" fill="#333333"/>
<path fill-rule="evenodd" clip-rule="evenodd" d="M38.2372 34.128C38.4469 33.917 38.7303 33.7986 39.0256 33.7986C39.321 33.7986 39.6044 33.917 39.814 34.128L45.1752 39.408C45.2802 39.5123 45.3634 39.6368 45.4203 39.7742C45.4773 39.9115 45.5065 40.059 45.5065 40.208C45.5065 40.3571 45.4773 40.5046 45.4203 40.6419C45.3634 40.7793 45.2802 40.9038 45.1752 41.008C44.9656 41.2191 44.6821 41.3375 44.3868 41.3375C44.0914 41.3375 43.8081 41.2191 43.5984 41.008L38.2372 35.728C38.0293 35.5153 37.9126 35.2277 37.9126 34.928C37.9126 34.6284 38.0293 34.3408 38.2372 34.128Z" fill="#333333"/>
<path d="M31.4573 31.7121L32.5611 30.5921C32.818 30.326 33.1247 30.1147 33.4631 29.9703C33.8016 29.826 34.165 29.7517 34.5321 29.7517C34.8992 29.7517 35.2627 29.826 35.6011 29.9703C35.9395 30.1147 36.2462 30.326 36.5031 30.5921L37.6069 31.7121C37.8691 31.9728 38.0775 32.284 38.2197 32.6274C38.3619 32.9708 38.4351 33.3396 38.4351 33.7121C38.4351 34.0846 38.3619 34.4534 38.2197 34.7968C38.0775 35.1402 37.8691 35.4514 37.6069 35.7121L36.6608 36.9921C36.4039 37.2582 36.0972 37.4696 35.7588 37.6139C35.4204 37.7582 35.0569 37.8325 34.6898 37.8325C34.3227 37.8325 33.9592 37.7582 33.6208 37.6139C33.2824 37.4696 32.9757 37.2582 32.7188 36.9921L31.615 35.8721C31.326 35.6155 31.0915 35.3018 30.9262 34.95C30.7607 34.5983 30.6678 34.216 30.653 33.8266C30.6382 33.4372 30.7019 33.0488 30.8402 32.6852C30.9786 32.3216 31.1886 31.9905 31.4573 31.7121Z" fill="#92E6E0"/>
<path fill-rule="evenodd" clip-rule="evenodd" d="M35.7146 31.3921C35.5666 31.2192 35.3836 31.0805 35.1783 30.9855C34.9729 30.8904 34.7498 30.8413 34.5241 30.8413C34.2984 30.8413 34.0753 30.8904 33.8699 30.9855C33.6645 31.0805 33.4816 31.2192 33.3336 31.3921L32.2298 32.5121C32.0682 32.6811 31.9424 32.8818 31.8601 33.102C31.7777 33.3221 31.7405 33.557 31.7509 33.7923C31.7612 34.0275 31.8188 34.2581 31.9202 34.4699C32.0215 34.6818 32.1645 34.8703 32.3402 35.0241L33.4597 36.1761C33.7718 36.4849 34.1906 36.6578 34.6266 36.6578C35.0626 36.6578 35.4813 36.4849 35.7934 36.1761L36.7395 34.8961C36.9099 34.7459 37.0466 34.5603 37.1402 34.3519C37.2339 34.1435 37.2823 33.9171 37.2823 33.6881C37.2823 33.459 37.2339 33.2327 37.1402 33.0243C37.0466 32.8159 36.9099 32.6303 36.7395 32.4801L35.7146 31.3921ZM31.7725 29.7921C32.1309 29.4201 32.5589 29.1244 33.0314 28.9226C33.5039 28.7208 34.0114 28.6168 34.5241 28.6168C35.0367 28.6168 35.5443 28.7208 36.0167 28.9226C36.4893 29.1244 36.9173 29.4201 37.2756 29.7921L38.3794 30.9121C39.1006 31.6442 39.5057 32.637 39.5057 33.6721C39.5057 34.7072 39.1006 35.7 38.3794 36.4321L37.4333 37.7121C37.0728 38.0802 36.6441 38.3724 36.1719 38.5718C35.6996 38.7711 35.1932 38.8738 34.6818 38.8738C34.1703 38.8738 33.6638 38.7711 33.1917 38.5718C32.7194 38.3724 32.2907 38.0802 31.9302 37.7121L30.858 36.6081C30.462 36.2493 30.1418 35.8127 29.9168 35.3247C29.6918 34.8368 29.5667 34.3076 29.549 33.7692C29.5314 33.2307 29.6215 32.6943 29.8139 32.1922C30.0064 31.6901 30.2972 31.2329 30.6688 30.8481L31.7725 29.7921Z" fill="#333333"/>
</svg>
