<svg width="69" height="68" viewBox="0 0 69 68" fill="none" xmlns="http://www.w3.org/2000/svg">
<path d="M27.7486 22.2718C29.6541 23.2723 31.2664 24.7449 32.4289 26.5466C34.1247 22.2887 33.2259 19.2257 29.9531 17.3407C26.6803 15.4558 23.6109 16.2804 20.7281 19.7979C22.0903 19.7903 23.442 20.0357 24.7132 20.5215C24.9336 20.6225 25.7646 20.3364 27.2399 19.6632C27.3586 21.2789 27.5282 22.1372 27.7486 22.2718Z" fill="#92E6E0"/>
<path fill-rule="evenodd" clip-rule="evenodd" d="M24.9752 15.7222C26.769 15.2434 28.5849 15.5719 30.3773 16.6042C32.1647 17.6336 33.3807 19.0355 33.8738 20.8285C34.3612 22.6004 34.1077 24.6287 33.2186 26.8612C33.1009 27.1568 32.8279 27.3619 32.5113 27.3927C32.1946 27.4235 31.8872 27.2749 31.7147 27.0075C30.6319 25.3295 29.1297 23.9571 27.3535 23.0245C27.3373 23.016 27.3213 23.0069 27.3056 22.9973C26.9941 22.8071 26.8584 22.4905 26.8013 22.3444C26.726 22.1519 26.6688 21.9255 26.6219 21.6862C26.5786 21.4645 26.5393 21.206 26.5037 20.912C26.2323 21.0234 25.9909 21.1155 25.7802 21.1873C25.5522 21.265 25.3345 21.3279 25.1404 21.362C25.043 21.3791 24.9313 21.3926 24.815 21.3913C24.7145 21.3901 24.5605 21.3779 24.396 21.3103C23.2272 20.8657 21.985 20.641 20.7329 20.6479C20.4035 20.6497 20.1027 20.4611 19.9609 20.1637C19.8192 19.8664 19.862 19.5139 20.0708 19.2591C21.578 17.4201 23.2063 16.1944 24.9752 15.7222ZM22.552 19.0796C23.3478 19.1993 24.1307 19.3999 24.8881 19.6793C24.9615 19.6633 25.0734 19.6322 25.2318 19.5782C25.6109 19.449 26.1569 19.2232 26.887 18.89C27.1401 18.7745 27.4337 18.7902 27.673 18.932C27.9124 19.0737 28.0672 19.3236 28.0876 19.601C28.1461 20.3976 28.2153 20.9764 28.2903 21.3598C28.3136 21.4788 28.3354 21.5678 28.3538 21.632C29.8003 22.4247 31.0825 23.4752 32.1381 24.727C32.4875 23.3785 32.498 22.2368 32.2347 21.2793C31.8842 20.005 31.0143 18.9329 29.5289 18.0774C28.0485 17.2248 26.6934 17.0231 25.4136 17.3647C24.4799 17.614 23.5242 18.169 22.552 19.0796ZM28.3997 21.7583C28.3995 21.7589 28.396 21.753 28.3899 21.7385C28.3968 21.7504 28.3999 21.7577 28.3997 21.7583Z" fill="#333333"/>
<path d="M41.5012 22.8273C38.8518 24.0714 36.5297 25.9092 34.7181 28.196C33.0563 22.7431 34.5373 18.8443 39.161 16.4993C43.7848 14.1544 47.8264 15.2483 51.2857 19.7811C49.4293 19.7518 47.5818 20.0422 45.8254 20.6394C44.662 20.4934 43.5418 20.1094 42.5356 19.5119C42.1456 21.5483 41.8234 22.6421 41.5012 22.8273Z" fill="#92E6E0"/>
<path fill-rule="evenodd" clip-rule="evenodd" d="M45.3713 16.6276C43.6732 16.168 41.7895 16.4052 39.6608 17.4848C37.532 18.5644 36.236 19.9408 35.6154 21.5745C35.1602 22.7729 35.0361 24.1948 35.3035 25.8711C36.8929 24.2642 38.7488 22.9337 40.7943 21.9403C40.832 21.8529 40.8801 21.7228 40.9367 21.5388C41.088 21.0472 41.257 20.3128 41.4502 19.304C41.518 18.9504 41.7537 18.6519 42.0821 18.5042C42.4104 18.3564 42.7902 18.3779 43.0998 18.5618C43.906 19.0406 44.7966 19.3619 45.7237 19.509C46.7765 19.1692 47.8585 18.9318 48.9542 18.7992C47.7792 17.6591 46.5819 16.9553 45.3713 16.6276ZM40.7328 22.0617C40.7327 22.0612 40.7362 22.0551 40.7437 22.0449C40.7367 22.0571 40.7329 22.0622 40.7328 22.0617ZM45.9487 14.4944C48.2763 15.1244 50.3396 16.7201 52.164 19.1107C52.4209 19.4472 52.4629 19.9009 52.2721 20.2789C52.0814 20.6569 51.6915 20.8926 51.2682 20.8859C49.5385 20.8586 47.8173 21.1292 46.181 21.6856C46.0225 21.7395 45.8538 21.7567 45.6876 21.7358C44.8761 21.6339 44.0831 21.4295 43.3273 21.129C43.2339 21.5338 43.1416 21.8879 43.049 22.1887C42.9557 22.492 42.8513 22.7775 42.7287 23.0185C42.6271 23.2183 42.4251 23.5708 42.0516 23.7854C42.0253 23.8005 41.9983 23.8146 41.9708 23.8275C39.4755 24.9992 37.2894 26.7298 35.5842 28.8821C35.3291 29.2042 34.9163 29.3581 34.5126 29.2817C34.1088 29.2053 33.7809 28.9111 33.6611 28.5181C32.7846 25.6423 32.695 23.0392 33.5494 20.7898C34.4098 18.5246 36.1661 16.7791 38.6612 15.5138C41.1562 14.2484 43.6051 13.8601 45.9487 14.4944Z" fill="#333333"/>
<path d="M32.7849 27.4386C33.1749 30.79 33.2713 34.1686 33.0732 37.5365C32.7737 41.2035 31.4201 44.7082 29.173 47.6343H38.737C39.2586 44.2949 39.4178 40.9096 39.2118 37.5365C38.9794 34.0169 38.0274 30.5812 36.4139 27.4386H32.7849Z" fill="white"/>
<path fill-rule="evenodd" clip-rule="evenodd" d="M31.9597 26.7038C32.1693 26.4683 32.4696 26.3336 32.7849 26.3336H36.4139C36.8282 26.3336 37.2077 26.5654 37.3969 26.9339C39.0792 30.2106 40.072 33.7933 40.3145 37.4636L40.3148 37.4691L40.3148 37.4691C40.5256 40.9217 40.3627 44.3868 39.8288 47.8049C39.7448 48.3428 39.2815 48.7393 38.7371 48.7393H29.173C28.7522 48.7393 28.3679 48.5003 28.1819 48.1229C27.9958 47.7454 28.0403 47.2951 28.2966 46.9613C30.412 44.2067 31.6867 40.9089 31.9709 37.4589C32.1643 34.1595 32.0694 30.8496 31.6873 27.5663C31.6509 27.2531 31.75 26.9393 31.9597 26.7038ZM34.0129 28.5436C34.2992 31.5537 34.354 34.5818 34.1763 37.6014L34.1746 37.6264C33.9164 40.7881 32.9175 43.8351 31.2705 46.5293H37.7814C38.1809 43.5733 38.2908 40.5851 38.1091 37.6066C37.901 34.4616 37.0926 31.3862 35.7289 28.5436H34.0129Z" fill="#333333"/>
<path fill-rule="evenodd" clip-rule="evenodd" d="M33.5797 35.3822C33.5797 34.9128 33.9603 34.5322 34.4297 34.5322H36.1255C36.5949 34.5322 36.9755 34.9128 36.9755 35.3822C36.9755 35.8517 36.5949 36.2322 36.1255 36.2322H34.4297C33.9603 36.2322 33.5797 35.8517 33.5797 35.3822Z" fill="#333333"/>
<path fill-rule="evenodd" clip-rule="evenodd" d="M35.2755 40.4312C35.2755 39.9617 35.6561 39.5812 36.1255 39.5812H39.5001C39.9695 39.5812 40.3501 39.9617 40.3501 40.4312C40.3501 40.9006 39.9695 41.2812 39.5001 41.2812H36.1255C35.6561 41.2812 35.2755 40.9006 35.2755 40.4312Z" fill="#333333"/>
<path d="M28.3591 30.8888C31.4401 29.934 34.7179 29.789 37.8723 30.468C35.0686 24.241 30.931 21.8568 25.4593 23.3154C19.9877 24.7739 17.6023 28.8972 18.3032 35.6852C19.7334 34.244 21.4174 33.0747 23.2718 32.2352C23.6109 32.1005 24.1875 30.9224 24.9676 28.6504C26.8668 30.2492 27.969 31.0571 28.3591 30.8888Z" fill="#92E6E0"/>
<path fill-rule="evenodd" clip-rule="evenodd" d="M33.2179 23.0521C35.5577 24.4003 37.4222 26.7769 38.8798 30.0143C39.0509 30.3944 38.9936 30.8385 38.7315 31.1627C38.4694 31.4869 38.0472 31.636 37.6397 31.5482C34.6823 30.9117 31.6096 31.0446 28.7198 31.9338C28.2103 32.1179 27.7308 31.9468 27.5123 31.8572C27.2199 31.7372 26.9126 31.5526 26.6092 31.3469C26.2797 31.1236 25.8999 30.8373 25.4721 30.4965C25.2869 30.9729 25.1132 31.3813 24.9516 31.7201C24.7975 32.0429 24.6404 32.3326 24.4792 32.5659C24.3597 32.7388 24.1112 33.0768 23.7143 33.2477C21.9873 34.0315 20.4194 35.1214 19.0875 36.4636C18.7867 36.7667 18.3381 36.8694 17.9354 36.7272C17.5326 36.585 17.2479 36.2235 17.204 35.7987C16.8396 32.2696 17.26 29.2821 18.61 26.9484C19.9768 24.5858 22.2129 23.0371 25.1747 22.2476C28.1365 21.4581 30.8495 21.6874 33.2179 23.0521ZM32.1145 24.967C30.3453 23.9475 28.2537 23.714 25.7439 24.383C23.234 25.0521 21.5415 26.2944 20.523 28.0551C19.7379 29.4121 19.3056 31.1593 19.2892 33.3455C20.3344 32.5405 21.4684 31.8523 22.671 31.2949C22.7374 31.1961 22.8333 31.0277 22.957 30.7685C23.2146 30.2285 23.5379 29.4113 23.9224 28.2916C24.0407 27.9469 24.3214 27.6827 24.6726 27.5855C25.0238 27.4882 25.4003 27.5703 25.6791 27.805C26.629 28.6047 27.3402 29.1725 27.8492 29.5176C28.0291 29.6395 28.1614 29.7181 28.2533 29.7661C30.7377 29.0278 33.3378 28.7842 35.9051 29.0418C34.7769 27.0995 33.5029 25.767 32.1145 24.967ZM28.3954 29.8276C28.3958 29.8284 28.3867 29.8263 28.3665 29.8186C28.3848 29.8229 28.3949 29.8267 28.3954 29.8276ZM22.6117 31.3731C22.6117 31.3725 22.6168 31.3661 22.6272 31.3557C22.6169 31.3686 22.6118 31.3737 22.6117 31.3731Z" fill="#333333"/>
<path d="M34.2433 44.2852C26.2393 44.2852 19.4901 47.8362 17.2856 52.7H51.0652C48.9794 47.8867 42.2303 44.2852 34.2433 44.2852Z" fill="white"/>
<path fill-rule="evenodd" clip-rule="evenodd" d="M16.2792 52.2439C18.7325 46.8311 26.0046 43.1802 34.2433 43.1802C42.4621 43.1802 49.7481 46.8813 52.0791 52.2607C52.2271 52.6022 52.1932 52.9953 51.989 53.3065C51.7847 53.6177 51.4375 53.8051 51.0652 53.8051H17.2857C16.9102 53.8051 16.5604 53.6144 16.3569 53.2988C16.1535 52.9832 16.1242 52.5859 16.2792 52.2439ZM19.212 51.5951H49.1675C46.6422 48.0755 41.0343 45.3902 34.2433 45.3902C27.4379 45.3902 21.8165 48.0382 19.212 51.5951Z" fill="#333333"/>
</svg>
