<svg width="69" height="68" viewBox="0 0 69 68" fill="none" xmlns="http://www.w3.org/2000/svg">
<path fill-rule="evenodd" clip-rule="evenodd" d="M18.4899 18.7288C19.0928 17.6606 20.2242 17 21.4508 17H46.9017C48.1283 17 49.2598 17.6606 49.8626 18.7288L55.0793 27.9714C55.7785 29.2103 55.6325 30.7535 54.7134 31.8393L36.7722 53.0344C35.4141 54.6387 32.9402 54.6388 31.5821 53.0345L13.6393 31.8393C12.7201 30.7535 12.5741 29.2103 13.2733 27.9713L18.4899 18.7288Z" fill="white"/>
<path fill-rule="evenodd" clip-rule="evenodd" d="M27.9648 30.0332H41.4178L33.945 54.4612L27.9648 30.0332Z" fill="#92E6E0"/>
<path fill-rule="evenodd" clip-rule="evenodd" d="M42.1468 29.3446L34.9094 17.1525L48.8871 17.1525L42.1468 29.3446Z" fill="#92E6E0"/>
<path fill-rule="evenodd" clip-rule="evenodd" d="M26.9024 29.3446L19.665 17.1525L33.6427 17.1525L26.9024 29.3446Z" fill="#92E6E0"/>
<path fill-rule="evenodd" clip-rule="evenodd" d="M17.4536 18.144C18.2675 16.7019 19.795 15.8101 21.4509 15.8101H46.9018C48.5577 15.8101 50.0852 16.7019 50.899 18.144L56.1157 27.3866C57.0596 29.0591 56.8626 31.1424 55.6218 32.6082L37.6805 53.8033C35.8471 55.9692 32.5074 55.9692 30.6739 53.8034L12.7311 32.6083C11.4902 31.1424 11.2931 29.059 12.2371 27.3865L17.4536 18.144ZM21.4509 18.1901C20.6536 18.1901 19.9182 18.6195 19.5263 19.3138L14.3097 28.5563C13.8552 29.3616 13.9501 30.3647 14.5476 31.0705L32.4904 52.2657C33.3732 53.3085 34.9812 53.3084 35.864 52.2656L53.8052 31.0705C54.4026 30.3648 54.4975 29.3617 54.043 28.5564L48.8264 19.3138C48.4345 18.6195 47.6991 18.1901 46.9018 18.1901H21.4509Z" fill="#333333"/>
<path fill-rule="evenodd" clip-rule="evenodd" d="M11.7847 29.9971C11.7847 29.3868 12.2794 28.8921 12.8897 28.8921H55.2355C55.8457 28.8921 56.3405 29.3868 56.3405 29.9971C56.3405 30.6074 55.8457 31.1021 55.2355 31.1021H12.8897C12.2794 31.1021 11.7847 30.6074 11.7847 29.9971Z" fill="#333333"/>
<path fill-rule="evenodd" clip-rule="evenodd" d="M19.0807 17.0536C19.5987 16.7309 20.2802 16.8893 20.6029 17.4073L28.1033 29.4486C28.426 29.9666 28.2676 30.6481 27.7496 30.9708C27.2316 31.2934 26.5501 31.1351 26.2275 30.6171L18.727 18.5757C18.4044 18.0577 18.5627 17.3762 19.0807 17.0536Z" fill="#333333"/>
<path fill-rule="evenodd" clip-rule="evenodd" d="M33.7412 17.0194C34.278 17.3096 34.478 17.9801 34.1877 18.5169L27.6783 30.5582C27.3881 31.0951 26.7177 31.295 26.1808 31.0048C25.644 30.7146 25.444 30.0441 25.7342 29.5073L32.2436 17.466C32.5339 16.9291 33.2043 16.7292 33.7412 17.0194Z" fill="#333333"/>
<path fill-rule="evenodd" clip-rule="evenodd" d="M34.3251 17.0536C34.8431 16.7309 35.5246 16.8893 35.8473 17.4073L43.3477 29.4486C43.6704 29.9666 43.512 30.6481 42.994 30.9708C42.476 31.2934 41.7945 31.1351 41.4718 30.6171L33.9714 18.5757C33.6488 18.0577 33.8071 17.3762 34.3251 17.0536Z" fill="#333333"/>
<path fill-rule="evenodd" clip-rule="evenodd" d="M48.9856 17.0194C49.5224 17.3096 49.7223 17.9801 49.4321 18.5169L42.9227 30.5582C42.6325 31.0951 41.962 31.295 41.4252 31.0048C40.8883 30.7146 40.6884 30.0441 40.9786 29.5073L47.488 17.466C47.7782 16.9291 48.4487 16.7292 48.9856 17.0194Z" fill="#333333"/>
<path fill-rule="evenodd" clip-rule="evenodd" d="M26.896 28.9617C27.4877 28.8124 28.0884 29.1711 28.2377 29.7628L34.287 53.7378C34.4363 54.3296 34.0777 54.9303 33.486 55.0796C32.8942 55.2289 32.2935 54.8703 32.1442 54.2785L26.0949 30.3035C25.9456 29.7117 26.3042 29.111 26.896 28.9617Z" fill="#333333"/>
<path fill-rule="evenodd" clip-rule="evenodd" d="M42.1853 28.972C42.7714 29.1424 43.1084 29.7555 42.9381 30.3415L35.9706 54.3166C35.8003 54.9026 35.1871 55.2396 34.6011 55.0693C34.0151 54.899 33.6781 54.2859 33.8484 53.6998L40.8159 29.7248C40.9862 29.1387 41.5993 28.8017 42.1853 28.972Z" fill="#333333"/>
</svg>
