<svg width="68" height="68" viewBox="0 0 68 68" fill="none" xmlns="http://www.w3.org/2000/svg">
<path fill-rule="evenodd" clip-rule="evenodd" d="M25.5732 12.4554C25.2441 12.1442 24.7288 12.1458 24.4016 12.4589L10.2 26.0489H15.8589V42.4345C15.8589 42.904 16.2394 43.2845 16.7089 43.2845H32.9875C33.457 43.2845 33.8375 42.904 33.8375 42.4345V26.0489H39.95L25.5732 12.4554Z" fill="white"/>
<path fill-rule="evenodd" clip-rule="evenodd" d="M24.9907 13.5423L13.1648 24.859H15.859C16.5162 24.859 17.049 25.3918 17.049 26.049V42.0946H32.6476V26.049C32.6476 25.3918 33.1804 24.859 33.8376 24.859H36.9594L24.9907 13.5423ZM23.5789 11.5992C24.3643 10.8476 25.601 10.8439 26.3909 11.5908L40.7676 25.1843C41.1218 25.5192 41.2359 26.0361 41.0557 26.489C40.8755 26.9418 40.4374 27.239 39.95 27.239H35.0276V42.4346C35.0276 43.5612 34.1143 44.4746 32.9876 44.4746H16.709C15.5823 44.4746 14.669 43.5612 14.669 42.4346V27.239H10.2001C9.71397 27.239 9.27675 26.9434 9.09569 26.4923C8.91463 26.0412 9.02612 25.5253 9.37731 25.1892L23.5789 11.5992Z" fill="#333333"/>
<path fill-rule="evenodd" clip-rule="evenodd" d="M42.4268 57.2444C42.7559 57.5556 43.2712 57.5541 43.5984 57.2409L57.8 43.6509H52.1411V27.2653C52.1411 26.7959 51.7606 26.4153 51.2911 26.4153L35.0125 26.4153C34.543 26.4153 34.1625 26.7959 34.1625 27.2653V43.6509H28.05L42.4268 57.2444Z" fill="#92E6E0"/>
<path fill-rule="evenodd" clip-rule="evenodd" d="M43.0093 56.1576L54.8352 44.841H52.141C51.4838 44.841 50.951 44.3082 50.951 43.651V27.6054L35.3524 27.6054V43.651C35.3524 44.3082 34.8196 44.841 34.1624 44.841H31.0406L43.0093 56.1576ZM44.4211 58.1008C43.6357 58.8523 42.399 58.856 41.6091 58.1092L27.2324 44.5156C26.8782 44.1808 26.7641 43.6638 26.9443 43.211C27.1245 42.7581 27.5626 42.461 28.0499 42.461H32.9724V27.2654C32.9724 26.1387 33.8857 25.2254 35.0124 25.2254H51.291C52.4177 25.2254 53.331 26.1387 53.331 27.2654V42.461H57.7999C58.286 42.461 58.7232 42.7566 58.9043 43.2077C59.0854 43.6588 58.9739 44.1747 58.6227 44.5107L44.4211 58.1008Z" fill="#333333"/>
<path fill-rule="evenodd" clip-rule="evenodd" d="M37.9768 35.8003C38.4269 35.6671 38.8999 35.9239 39.0332 36.374L40.7631 42.2159L42.7004 36.5128C42.8188 36.1644 43.1479 35.9317 43.5158 35.9363C43.8838 35.9409 44.207 36.1817 44.3167 36.533L46.03 42.021L47.5993 36.3873C47.7253 35.935 48.194 35.6706 48.6462 35.7965C49.0985 35.9225 49.3629 36.3912 49.237 36.8435L46.8952 45.25C46.7941 45.613 46.4662 45.866 46.0895 45.8718C45.7128 45.8777 45.3772 45.6349 45.265 45.2753L43.4712 39.5293L41.5123 45.2954C41.3932 45.646 41.0609 45.8791 40.6907 45.8718C40.3205 45.8645 39.9976 45.6183 39.8925 45.2633L37.4031 36.8567C37.2698 36.4066 37.5267 35.9336 37.9768 35.8003Z" fill="#333333"/>
<path fill-rule="evenodd" clip-rule="evenodd" d="M36.5181 39.9781C36.5181 39.5086 36.8986 39.1281 37.3681 39.1281H49.2681C49.7375 39.1281 50.1181 39.5086 50.1181 39.9781C50.1181 40.4475 49.7375 40.8281 49.2681 40.8281H37.3681C36.8986 40.8281 36.5181 40.4475 36.5181 39.9781Z" fill="#333333"/>
<path fill-rule="evenodd" clip-rule="evenodd" d="M27.6781 25.7963C28.0819 26.0359 28.215 26.5573 27.9754 26.9611L22.9039 35.5095C22.6644 35.9132 22.1429 36.0464 21.7392 35.8068C21.3355 35.5673 21.2023 35.0458 21.4419 34.6421L26.5134 26.0937C26.7529 25.6899 27.2744 25.5568 27.6781 25.7963Z" fill="#333333"/>
<path fill-rule="evenodd" clip-rule="evenodd" d="M21.2043 27.8708C20.7514 27.8708 20.4 28.2314 20.4 28.658C20.4 29.0846 20.7514 29.4452 21.2043 29.4452C21.6586 29.4452 22.0097 29.0842 22.0097 28.658C22.0097 28.2318 21.6586 27.8708 21.2043 27.8708ZM18.7 28.658C18.7 27.2763 19.8288 26.1708 21.2043 26.1708C22.5805 26.1708 23.7097 27.2759 23.7097 28.658C23.7097 30.0401 22.5805 31.1452 21.2043 31.1452C19.8288 31.1452 18.7 30.0397 18.7 28.658Z" fill="#333333"/>
<path fill-rule="evenodd" clip-rule="evenodd" d="M28.0054 32.4213C27.5518 32.4213 27.2 32.7827 27.2 33.2085C27.2 33.6344 27.5518 33.9958 28.0054 33.9958C28.459 33.9958 28.8108 33.6344 28.8108 33.2085C28.8108 32.7827 28.459 32.4213 28.0054 32.4213ZM25.5 33.2085C25.5 31.8261 26.6307 30.7213 28.0054 30.7213C29.3802 30.7213 30.5108 31.8261 30.5108 33.2085C30.5108 34.591 29.3802 35.6958 28.0054 35.6958C26.6307 35.6958 25.5 34.591 25.5 33.2085Z" fill="#333333"/>
</svg>
