<svg width="69" height="68" viewBox="0 0 69 68" fill="none" xmlns="http://www.w3.org/2000/svg">
<path d="M12.6143 23.8C12.6143 20.9833 14.8976 18.7 17.7143 18.7H51.7143C54.5309 18.7 56.8143 20.9833 56.8143 23.8V44.1999C56.8143 47.0166 54.5309 49.2999 51.7143 49.2999H17.7143C14.8976 49.2999 12.6143 47.0166 12.6143 44.1999V23.8Z" fill="white"/>
<path fill-rule="evenodd" clip-rule="evenodd" d="M11.4243 23.8C11.4243 20.3261 14.2404 17.51 17.7143 17.51H51.7143C55.1882 17.51 58.0043 20.3261 58.0043 23.8V44.2C58.0043 47.6739 55.1882 50.49 51.7143 50.49H17.7143C14.2404 50.49 11.4243 47.6739 11.4243 44.2V23.8ZM17.7143 19.89C15.5549 19.89 13.8043 21.6406 13.8043 23.8V44.2C13.8043 46.3594 15.5549 48.11 17.7143 48.11H51.7143C53.8738 48.11 55.6243 46.3594 55.6243 44.2V23.8C55.6243 21.6406 53.8738 19.89 51.7143 19.89H17.7143Z" fill="#333333"/>
<path d="M48.3142 18.7H52.5642C54.9114 18.7 56.8142 20.6027 56.8142 22.95V45.0499C56.8142 47.3972 54.9114 49.2999 52.5642 49.2999H48.3142V18.7Z" fill="#92E6E0"/>
<path fill-rule="evenodd" clip-rule="evenodd" d="M47.1243 17.51H52.5643C55.5687 17.51 58.0043 19.9456 58.0043 22.95V45.05C58.0043 48.0544 55.5687 50.49 52.5643 50.49H47.1243V17.51ZM49.5043 19.89V48.11H52.5643C54.2543 48.11 55.6243 46.74 55.6243 45.05V22.95C55.6243 21.26 54.2543 19.89 52.5643 19.89H49.5043Z" fill="#333333"/>
<path fill-rule="evenodd" clip-rule="evenodd" d="M25.8243 27.37C24.7262 27.37 23.8344 28.2617 23.8344 29.3598C23.8344 30.4595 24.7257 31.3496 25.8243 31.3496C26.9228 31.3496 27.8141 30.4595 27.8141 29.3598C27.8141 28.2617 26.9224 27.37 25.8243 27.37ZM21.7944 29.3598C21.7944 27.135 23.5995 25.33 25.8243 25.33C28.049 25.33 29.8541 27.135 29.8541 29.3598C29.8541 31.587 28.0486 33.3896 25.8243 33.3896C23.6 33.3896 21.7944 31.587 21.7944 29.3598Z" fill="#333333"/>
<path fill-rule="evenodd" clip-rule="evenodd" d="M38.0503 26.6657C38.4487 27.064 38.4487 27.7099 38.0503 28.1082L24.5723 41.5862C24.174 41.9846 23.5281 41.9846 23.1298 41.5862C22.7315 41.1879 22.7315 40.5421 23.1298 40.1437L36.6078 26.6657C37.0062 26.2674 37.652 26.2674 38.0503 26.6657Z" fill="#333333"/>
<path fill-rule="evenodd" clip-rule="evenodd" d="M35.1045 36.6502C34.0064 36.6502 33.1147 37.542 33.1147 38.6401C33.1147 39.7397 34.006 40.6299 35.1045 40.6299C36.2031 40.6299 37.0944 39.7397 37.0944 38.6401C37.0944 37.542 36.2026 36.6502 35.1045 36.6502ZM31.0747 38.6401C31.0747 36.4153 32.8798 34.6102 35.1045 34.6102C37.3293 34.6102 39.1344 36.4153 39.1344 38.6401C39.1344 40.8673 37.3289 42.6699 35.1045 42.6699C32.8802 42.6699 31.0747 40.8673 31.0747 38.6401Z" fill="#333333"/>
</svg>
