<svg width="69" height="68" viewBox="0 0 69 68" fill="none" xmlns="http://www.w3.org/2000/svg">
<path fill-rule="evenodd" clip-rule="evenodd" d="M40.7494 45.991C41.1749 46.4284 41.1653 47.128 40.7279 47.5535L34.7779 53.3419C34.3404 53.7675 33.6409 53.7578 33.2153 53.3204C32.7898 52.883 32.7994 52.1834 33.2368 51.7578L39.1868 45.9695C39.6243 45.5439 40.3238 45.5535 40.7494 45.991Z" fill="#333333"/>
<path fill-rule="evenodd" clip-rule="evenodd" d="M18.6493 26.145C19.0748 26.5825 19.0652 27.282 18.6278 27.7076L12.6778 33.496C12.2403 33.9215 11.5408 33.9119 11.1152 33.4745C10.6897 33.037 10.6993 32.3374 11.1367 31.9119L17.0867 26.1235C17.5242 25.698 18.2237 25.7076 18.6493 26.145Z" fill="#333333"/>
<path fill-rule="evenodd" clip-rule="evenodd" d="M44.1492 49.2986C44.5747 49.736 44.5651 50.4356 44.1277 50.8611L41.5777 53.3419C41.1402 53.7674 40.4407 53.7578 40.0151 53.3204C39.5896 52.8829 39.5992 52.1834 40.0366 51.7578L42.5866 49.2771C43.0241 48.8515 43.7236 48.8612 44.1492 49.2986Z" fill="#333333"/>
<path fill-rule="evenodd" clip-rule="evenodd" d="M22.0493 29.4528C22.4749 29.8902 22.4652 30.5898 22.0278 31.0153L19.4778 33.4961C19.0404 33.9216 18.3408 33.912 17.9153 33.4745C17.4897 33.0371 17.4993 32.3375 17.9368 31.912L20.4868 29.4313C20.9242 29.0057 21.6238 29.0153 22.0493 29.4528Z" fill="#333333"/>
<path fill-rule="evenodd" clip-rule="evenodd" d="M29.9899 16.8241C30.8451 16.0012 32.2219 16.0012 33.0772 16.8241C33.9459 17.6599 33.9459 19.0249 33.0772 19.8608L32.0366 20.862C31.1814 21.6849 29.8046 21.6849 28.9493 20.862C28.0806 20.0262 28.0806 18.6612 28.9493 17.8253L29.9899 16.8241Z" fill="white"/>
<path fill-rule="evenodd" clip-rule="evenodd" d="M32.2895 19.0861C32.715 18.6767 32.715 18.0082 32.2895 17.5989C31.8707 17.1958 31.1964 17.1958 30.7775 17.5989L29.737 18.6001C29.3115 19.0094 29.3115 19.6779 29.737 20.0873C30.1558 20.4903 30.8301 20.4903 31.249 20.0873L32.2895 19.0861ZM33.8649 16.0494C35.1768 17.3117 35.1768 19.3732 33.8649 20.6356L32.8243 21.6368C31.5326 22.8796 29.4533 22.8796 28.1616 21.6368C26.8497 20.3744 26.8497 18.3129 28.1616 17.0506L29.2022 16.0494C30.4939 14.8065 32.5732 14.8065 33.8649 16.0494Z" fill="#333333"/>
<path fill-rule="evenodd" clip-rule="evenodd" d="M50.5919 35.975C51.4472 35.152 52.824 35.152 53.6792 35.975C54.5479 36.8108 54.5479 38.1758 53.6792 39.0117L52.6387 40.0129C51.7834 40.8358 50.4066 40.8358 49.5514 40.0129C48.6827 39.177 48.6827 37.812 49.5514 36.9762L50.5919 35.975Z" fill="white"/>
<path fill-rule="evenodd" clip-rule="evenodd" d="M52.8916 38.2368C53.317 37.8275 53.317 37.159 52.8916 36.7496C52.4727 36.3466 51.7984 36.3466 51.3796 36.7496L50.339 37.7508C49.9136 38.1602 49.9136 38.8287 50.339 39.238C50.7579 39.6411 51.4322 39.6411 51.851 39.238L52.8916 38.2368ZM54.4669 35.2001C55.7788 36.4625 55.7788 38.524 54.4669 39.7863L53.4264 40.7875C52.1347 42.0304 50.0554 42.0304 48.7637 40.7875C47.4517 39.5252 47.4517 37.4637 48.7637 36.2013L49.8042 35.2001C51.0959 33.9573 53.1752 33.9573 54.4669 35.2001Z" fill="#333333"/>
<path fill-rule="evenodd" clip-rule="evenodd" d="M16.4218 15.9867L40.3444 23.0083L31.6608 32.7088L14.4124 17.7006L16.4218 15.9867Z" fill="#92E6E0"/>
<path fill-rule="evenodd" clip-rule="evenodd" d="M15.6497 15.0812C15.9552 14.8206 16.3717 14.7317 16.757 14.8448L40.6796 21.8665C41.0715 21.9815 41.377 22.2894 41.4889 22.6822C41.6008 23.075 41.5035 23.4977 41.2311 23.802L32.5476 33.5024C32.1136 33.9872 31.3706 34.0336 30.8798 33.6064L13.6313 18.5982C13.37 18.3709 13.2207 18.041 13.2224 17.6946C13.2241 17.3483 13.3767 17.0199 13.6402 16.7951L15.6497 15.0812ZM16.7044 17.3098L16.2356 17.7095L31.5569 31.0408L38.2005 23.6192L16.7044 17.3098Z" fill="#333333"/>
<path fill-rule="evenodd" clip-rule="evenodd" d="M54.3997 51.1131L47.1021 28.0949L37.0206 36.4502L52.6185 53.0466L54.3997 51.1131Z" fill="#92E6E0"/>
<path fill-rule="evenodd" clip-rule="evenodd" d="M55.275 51.9195C55.5643 51.6055 55.6632 51.1605 55.5342 50.7536L48.2366 27.7354C48.117 27.3581 47.8176 27.0649 47.4379 26.9533C47.0581 26.8417 46.6477 26.9262 46.3429 27.1788L36.2614 35.534C36.0085 35.7436 35.8535 36.0485 35.833 36.3763C35.8126 36.7042 35.9286 37.0259 36.1536 37.2652L51.7515 53.8617C51.9778 54.1025 52.2941 54.2383 52.6246 54.2367C52.955 54.235 53.2699 54.096 53.4938 53.853L55.275 51.9195ZM53.0568 50.8147L52.6099 51.2998L38.7553 36.5583L46.5017 30.1383L53.0568 50.8147Z" fill="#333333"/>
<path fill-rule="evenodd" clip-rule="evenodd" d="M21.0833 44.3608C21.0833 44.3608 43.4132 15.3389 51.1642 15.3389C58.4633 16.0687 47.1207 28.6601 47.1207 28.6601L24.4524 47.4504L26.309 52.6594L24.4524 54.4001L13.7383 44.3608L16.1678 42.4222L21.0833 44.3608Z" fill="white"/>
<path fill-rule="evenodd" clip-rule="evenodd" d="M22.0267 45.0862C22.0265 45.0864 22.0265 45.0864 21.0834 44.3607L22.0267 45.0862C21.7032 45.5067 21.1403 45.6624 20.6468 45.4677L16.3718 43.7818L15.5558 44.4329L24.4522 52.769L24.9264 52.3245L23.3315 47.8499C23.1637 47.3789 23.3081 46.8533 23.693 46.5342L46.2917 27.8015L46.3529 27.7324C46.4309 27.6437 46.5456 27.5122 46.6898 27.3438C46.9782 27.0067 47.3837 26.5229 47.8481 25.9398C48.7816 24.7679 49.9341 23.2189 50.8564 21.6655C51.8109 20.058 52.3948 18.646 52.4222 17.6939C52.4347 17.2627 52.3297 17.0537 52.2181 16.9348C52.0981 16.8068 51.8065 16.6089 51.1085 16.5296C50.4647 16.5474 49.5129 16.8703 48.2486 17.6122C46.9803 18.3564 45.5317 19.4411 43.9673 20.7781C40.8413 23.4499 37.3631 27.0339 34.1004 30.6473C30.8428 34.255 27.8232 37.8661 25.6165 40.5773C24.5136 41.9322 23.6149 43.0611 22.9925 43.8505C22.6812 44.2452 22.4391 44.555 22.2751 44.7657C22.1931 44.8711 22.1307 44.9516 22.0888 45.0057L22.0418 45.0666L22.0267 45.0862ZM47.1207 28.66C48.0049 29.4565 48.0051 29.4563 48.0053 29.4561L48.008 29.453L48.0153 29.4449L48.0417 29.4154C48.0645 29.3898 48.0975 29.3526 48.1398 29.3045C48.2243 29.2084 48.3462 29.0686 48.4979 28.8914C48.8012 28.537 49.2249 28.0314 49.7098 27.4226C50.675 26.2108 51.9019 24.5664 52.9029 22.8807C53.8716 21.2491 54.7548 19.3764 54.8013 17.7624C54.8258 16.9105 54.6194 16.016 53.9542 15.3067C53.3009 14.6102 52.3641 14.2628 51.2827 14.1547C51.2433 14.1508 51.2038 14.1488 51.1643 14.1488C49.8707 14.1488 48.4475 14.736 47.0441 15.5595C45.6077 16.4024 44.0401 17.5851 42.421 18.9689C39.1802 21.7387 35.6226 25.4101 32.334 29.0523C29.0402 32.7 25.993 36.3444 23.7706 39.0749C22.6589 40.4407 21.7525 41.5792 21.1235 42.3769C20.9604 42.5838 20.8159 42.7678 20.6913 42.9269L16.6045 41.3151C16.2082 41.1589 15.7586 41.2263 15.4257 41.492L12.9961 43.4305C12.7261 43.646 12.563 43.9683 12.5493 44.3135C12.5356 44.6587 12.6726 44.9929 12.9247 45.2291L23.6388 55.2684C24.0966 55.6973 24.8087 55.6972 25.2664 55.2682L27.123 53.5275C27.4684 53.2036 27.589 52.7058 27.43 52.2598L25.8529 47.8351L47.8802 29.5762C47.9246 29.5394 47.9667 29.4989 48.0053 29.4561L47.1207 28.66Z" fill="#333333"/>
</svg>
